<svg id="svg" width="1008" xmlns="http://www.w3.org/2000/svg" height="450" style="max-width: 1008px;" viewBox="0 0 1008 450"><style>#svg{font-family:"trebuchet ms",verdana,arial,sans-serif;font-size:16px;fill:#333;}#svg .error-icon{fill:#552222;}#svg .error-text{fill:#552222;stroke:#552222;}#svg .edge-thickness-normal{stroke-width:2px;}#svg .edge-thickness-thick{stroke-width:3.5px;}#svg .edge-pattern-solid{stroke-dasharray:0;}#svg .edge-pattern-dashed{stroke-dasharray:3;}#svg .edge-pattern-dotted{stroke-dasharray:2;}#svg .marker{fill:#333333;stroke:#333333;}#svg .marker.cross{stroke:#333333;}#svg svg{font-family:"trebuchet ms",verdana,arial,sans-serif;font-size:16px;}#svg .pieTitleText{text-anchor:middle;font-size:25px;fill:black;font-family:"trebuchet ms",verdana,arial,sans-serif;}#svg .slice{font-family:"trebuchet ms",verdana,arial,sans-serif;fill:#333;}#svg .legend text{fill:black;font-family:"trebuchet ms",verdana,arial,sans-serif;font-size:17px;}#svg .today{display:none;}#svg .label foreignObject{overflow:visible;}#svg:root{--mermaid-font-family:"trebuchet ms",verdana,arial,sans-serif;}#svg pie{fill:apa;}</style><g></g><g transform="translate(504,225)"><path d="M1.1327982892113017e-14,-185A185,185,0,1,1,-175.9454555146034,57.16814395936529L0,0Z" fill="#66c2a5" stroke="black" style="stroke-width: 2px; opacity: 0.7;"></path><path d="M-175.9454555146034,57.16814395936529A185,185,0,0,1,-149.66814395936527,-108.7402716741075L0,0Z" fill="#fc8d62" stroke="black" style="stroke-width: 2px; opacity: 0.7;"></path><path d="M-149.66814395936527,-108.7402716741075A185,185,0,0,1,-78.76916893953849,-167.3930047062136L0,0Z" fill="#8da0cb" stroke="black" style="stroke-width: 2px; opacity: 0.7;"></path><path d="M-78.76916893953849,-167.3930047062136A185,185,0,0,1,-3.398394867633905e-14,-185L0,0Z" fill="#e78ac3" stroke="black" style="stroke-width: 2px; opacity: 0.7;"></path><text transform="translate(74.83407197968263,54.370135837053766)" class="slice" style="text-anchor: middle; font-size: 17px;">70%</text><text transform="translate(-91.36117150505024,-14.470188016221343)" class="slice" style="text-anchor: middle; font-size: 17px;">15%</text><text transform="translate(-58.96171905175378,-71.27247495676052)" class="slice" style="text-anchor: middle; font-size: 17px;">8%</text><text transform="translate(-20.17824982918025,-90.27230047933412)" class="slice" style="text-anchor: middle; font-size: 17px;">7%</text><text x="0" y="-200" class="pieTitleText">操作系统份额</text><g class="legend" transform="translate(216,-44)"><rect width="18" height="18" style="fill: rgb(102, 194, 165); stroke: rgb(102, 194, 165);"></rect><text x="22" y="14">Windows</text></g><g class="legend" transform="translate(216,-22)"><rect width="18" height="18" style="fill: rgb(252, 141, 98); stroke: rgb(252, 141, 98);"></rect><text x="22" y="14">MacOS</text></g><g class="legend" transform="translate(216,0)"><rect width="18" height="18" style="fill: rgb(141, 160, 203); stroke: rgb(141, 160, 203);"></rect><text x="22" y="14">Linux</text></g><g class="legend" transform="translate(216,22)"><rect width="18" height="18" style="fill: rgb(231, 138, 195); stroke: rgb(231, 138, 195);"></rect><text x="22" y="14">Others</text></g></g></svg>