<?xml version="1.0" standalone="no"?><!DOCTYPE svg PUBLIC "-//W3C//DTD SVG 1.1//EN" "http://www.w3.org/Graphics/SVG/1.1/DTD/svg11.dtd"><svg t="1679058775566" class="icon" viewBox="0 0 1024 1024" version="1.1" xmlns="http://www.w3.org/2000/svg" p-id="37297" xmlns:xlink="http://www.w3.org/1999/xlink" width="200" height="200"><path d="M675.232 0c-6.368 0-12.32 1.824-17.376 4.96l0.128-0.096c-16.032 9.472-42.752 36.32-74.592 75.232l-6.656 8.192a1598.4 1598.4 0 0 0-108.16 153.536l-4.064 7.04-2.816 4.608a1584.32 1584.32 0 0 0-68.352 121.536l-4.576 9.92c-14.784 28.64-30.592 64.64-44.448 101.568l-2.496 7.52c-3.872 10.72-7.424 21.024-10.656 30.976a880.32 880.32 0 0 0-22.176 85.088l0.032 0.096-0.544 2.592a559.232 559.232 0 0 0-9.824 70.112l-0.128 2.08-0.224 2.528c-11.936-19.168-43.904-37.792-43.872-37.632 22.912 33.184 40.288 66.144 42.848 98.464-12.256 2.528-29.056-1.12-48.48-8.288 20.224 18.592 35.424 23.712 41.344 25.088-18.592 1.152-37.92 13.952-57.44 28.64 28.512-11.648 51.552-16.224 68.064-12.512-16.32 40.608-43.104 121.312-68.128 202.816l-10.528 39.872a22.88 22.88 0 0 0 15.488-14.944l0.032-0.16c4.704-15.744 35.712-118.88 84.352-254.464l4.192-11.648 1.184-3.232c5.12-14.208 10.464-28.704 15.968-43.52l3.808-10.112 0.096-0.224-25.76-50.912 25.76 50.848c5.088-13.536 10.24-27.232 15.584-41.088l2.208-5.792 2.272-5.856 1.76-4.448-1.76 4.48-2.272 5.792-2.208 5.792c-5.344 13.856-10.496 27.552-15.584 41.088l4.512 8.864 4-0.416 0.416-1.184c6.528-17.792 12.96-35.168 19.36-52.064l0.224-0.608c3.552-12.8-3.072 4.608-9.568 22.08l-9.984 30.56-0.416 1.184-2.848 7.808c-5.024 13.856-10.112 27.936-15.2 42.368l-0.224 0.64-2.176 6.112c-3.424 9.728-6.4 18.464-13.184 38.368 11.232 5.12 20.224 18.592 28.768 33.888a61.216 61.216 0 0 0-19.84-42.144l-0.032-0.032c55.296 2.464 102.944-11.488 127.616-51.936 2.208-3.616 4.224-7.392 6.016-11.424-11.168 14.208-25.088 20.224-51.2 18.72 38.496-17.248 57.76-33.76 74.848-61.152 3.552-5.632 7.552-12.64 11.232-19.84l0.736-1.6c-33.664 34.56-72.608 44.384-113.696 36.896h-0.096l-1.76-0.288c36.832-4.576 85.76-32.096 117.408-66.048a293.824 293.824 0 0 0 40.064-55.712c9.12-16.096 17.664-33.92 25.824-53.664 7.136-17.248 13.952-35.936 20.576-56.192a109.472 109.472 0 0 1-33.92 11.04l-0.64 0.096c-0.704 0.16-2.72 0.48-4.704 0.8l-1.184 0.16 0.096-0.032 0.128-0.032c1.92-0.288 3.808-0.544 5.664-0.896 1.92-0.352 3.84-0.672 5.728-1.12l-5.664 1.024-5.632 0.992c34.208-13.216 55.808-38.688 71.52-69.856-11.808 8.128-25.6 14.368-40.48 17.92l-0.832 0.16a100.672 100.672 0 0 1-6.528 1.216l-0.768 0.096-1.824 0.256 0.032-0.032 0.384-0.032 1.376-0.224c3.008-0.448 5.28-0.896 7.52-1.376l-0.832 0.16 0.608-0.128-0.672 0.128-8.288 1.408c11.872-4.992 21.888-10.528 30.592-17.12 6.496-5.088 12.224-10.56 17.408-16.544l0.128-0.16c3.424-4.064 6.624-8.448 9.6-13.216l2.72-4.448 3.296-6.496c4.864-9.408 10.144-21.408 14.816-33.664l0.896-2.656 1.312-3.744c1.184-3.616 2.208-6.88 2.976-9.696a94.72 94.72 0 0 0 2.272-10.08 30.592 30.592 0 0 1-3.872 2.656l-0.16 0.064c-10.368 6.176-28.16 11.808-42.496 14.464l-4.224 0.48-0.032 0.032-96.736 10.624-0.512 1.024-3.296 6.752-10.016 20.832c3.36-7.072 6.688-14.048 10.016-20.832l3.296-6.752c0.16-0.384 0.384-0.736 0.512-1.12l-3.584 0.384-2.848-5.632c0.608-2.368-4.768 8.32-10.08 19.04l-6.048 13.536-8.704 18.08c-8.224 15.136-23.84 48.896-38.848 82.976l-7.744 19.68c-5.024 8.416-20.576 45.024-35.616 81.888l-10.528 29.152 3.68-9.216a2805.856 2805.856 0 0 1 53.184-129.088l-10.72 27.264a2430.72 2430.72 0 0 1 54.72-121.28l-8.128 18.592 8.704-18.08c5.024-10.4 10.112-20.704 15.264-30.88l0.864-1.632c8.16-16.128 16.384-32 24.704-47.616 8.864-16.64 17.92-32.896 27.008-48.672 12.8-22.496 22.304-38.112 32.096-53.472l-3.424 5.728 1.696-2.72c9.568-15.104 19.2-29.664 28.896-43.552a716.896 716.896 0 0 1 65.344-81.472l-0.416 0.448-2.464 2.656c-6.816 7.52-27.488 31.616-58.656 79.488 30.048-1.504 76.16-7.648 113.792-14.08 11.168-62.72-10.976-91.392-10.976-91.392S700.416 0.288 675.168 0z m-70.304 320.288c28.16-12.96 40.8-24.704 52.992-41.632 3.232-4.704 6.528-9.568 9.76-14.624a599.68 599.68 0 0 0 28.384-49.568c8.416-16.384 15.84-32.64 21.504-47.328 2.752-6.656 5.664-15.168 8.128-23.872l0.416-1.728c1.76-6.688 3.168-13.088 4.224-19.168-37.664 6.4-83.808 12.576-113.824 14.048-7.168 10.592-16.992 26.208-26.464 42.08l-3.232 5.792c-8.704 14.72-18.016 30.848-27.744 48.512-12.16 20.832-29.152 52.992-45.312 85.6l-5.6 12.512z m154.784-226.496v2.816h6.656v18.72h3.072v-18.72h6.688v-2.816z m19.776 0v21.6h2.816v-17.12l7.328 14.848h1.952l7.328-14.848v17.12h2.816v-21.6h-3.712l-7.424 15.072-7.456-15.072z m-171.008 226.176l-4.352 0.672 0.032-0.032z m-3.84 0.512l-0.224 0.096z m-116.928 52.992l-4.512 9.696-5.664 12.256c-5.056 8.736-18.24 38.016-31.008 67.488l-8.288 21.472c-4.832 8.288-19.2 42.72-33.088 77.376l-9.536 26.976c-6.304 16.128-12.704 32.64-19.168 49.632l-0.224 0.608c38.56-104.736 72.704-185.088 109.856-263.776l-8.576 20.192 5.664-12.256z" fill="#D22128" p-id="37298"></path></svg>