<?xml version="1.0" standalone="no"?><!DOCTYPE svg PUBLIC "-//W3C//DTD SVG 1.1//EN" "http://www.w3.org/Graphics/SVG/1.1/DTD/svg11.dtd"><svg t="1678977459949" class="icon" viewBox="0 0 1024 1024" version="1.1" xmlns="http://www.w3.org/2000/svg" p-id="2790" xmlns:xlink="http://www.w3.org/1999/xlink" width="200" height="200"><path d="M558.528 471.744C607.04 525.376 545.088 576 545.088 576s120.768-61.888 66.048-140.352c-51.584-72.256-91.84-108.352 123.84-234.24 0.064 0.96-338.432 86.592-176.448 270.336" fill="#FF0000" p-id="2791"></path><path d="M611.2 1.152s102.144 102.144-97.024 260.032c-158.912 126.912-36.096 199.168 0 282.752-93.888-84.608-160.96-158.912-115.584-228.032C463.616 213.696 652.48 164.224 611.2 1.152" fill="#FF0000" p-id="2792"></path><path d="M722.624 759.616c184.704-96 99.072-189.888 40.256-176.448-15.488 3.072-21.696 5.184-21.696 5.184s5.184-8.256 16.512-11.328c118.656-41.28 209.472 121.792-38.208 187.84-0.96-0.064 2.112-3.136 3.136-5.248m-340.544 39.232s-38.208 21.696 26.816 29.952c77.376 8.256 118.656 8.256 204.352-8.256 0 0 23.744 15.488 53.632 26.816-192.96 81.536-436.48-5.184-284.8-48.512m-23.744-107.328s-43.328 32 23.744 38.208c83.584 8.256 150.656 10.304 263.168-13.44 0 0 16.512 16.512 41.28 24.768-233.216 69.12-494.336 5.184-328.192-49.536" fill="#6699FF" p-id="2793"></path><path d="M813.44 879.36s27.84 23.744-32 41.28c-112.512 35.072-464.384 45.44-562.432 2.048-35.072-15.488 32-36.096 51.584-41.28 21.696-5.184 35.072-3.072 35.072-3.072-39.232-28.864-253.888 52.608-108.352 76.352 393.216 62.912 718.272-28.928 616.128-75.328M399.616 579.072s-179.584 43.328-64 56.768c49.536 6.208 147.584 5.184 237.376-3.072 74.304-6.208 148.608-19.584 148.608-19.584s-26.816 11.328-45.44 24.768c-182.656 48.512-534.528 26.816-433.408-23.744 88.768-40.32 156.864-35.136 156.864-35.136" fill="#6699FF" p-id="2794"></path><path d="M418.176 1019.712c177.472 11.328 449.92-6.208 457.152-90.816 0 0-13.44 32-147.584 56.768-151.68 27.84-339.52 24.768-449.92 6.208 2.112 0.96 24.768 20.608 140.352 27.84" fill="#6699FF" p-id="2795"></path></svg>