<?xml version="1.0" standalone="no"?><!DOCTYPE svg PUBLIC "-//W3C//DTD SVG 1.1//EN" "http://www.w3.org/Graphics/SVG/1.1/DTD/svg11.dtd"><svg t="1679058003400" class="icon" viewBox="0 0 1477 1024" version="1.1" xmlns="http://www.w3.org/2000/svg" p-id="9853" xmlns:xlink="http://www.w3.org/1999/xlink" width="288.4765625" height="200"><path d="M452.232531 827.013903h-39.996981c-1.414386-67.511812-5.309744-130.981417-11.678346-190.455189h-0.355528l-60.895887 190.455189h-30.451808l-60.532628-190.455189h-0.3478c-4.490482 57.101004-7.319254 120.586067-8.494045 190.455189H203.022356c2.349581-84.963635 8.254449-164.617526 17.691419-238.969402h49.573069l57.696128 175.592543h0.355529l58.051657-175.592543h47.432168c10.387622 87.089078 16.524357 166.750698 18.410205 238.969402m173.45937-176.311329c-16.284761 88.372073-37.771062 152.583652-64.435716 192.66565-20.775243 30.85371-43.53681 46.296022-68.323345 46.296022-6.608197 0-14.762171-1.994052-24.423277-5.951241v-21.308537c4.722349 0.680142 10.26396 1.066586 16.632561 1.066586 11.57787 0 20.883448-3.184301 27.978564-9.568359 8.486316-7.775259 12.729474-16.516628 12.729474-26.185464 0-6.631384-3.307963-20.187848-9.908431-40.715767L472.049392 650.694845h39.293653l31.502936 101.943996c7.079659 23.148011 10.032093 39.30911 8.849573 48.514212 17.227685-46.010054 29.261559-96.178247 36.117081-150.465937h37.879266v0.015458z" fill="#5D87A1" p-id="9854"></path><path d="M1158.096158 827.013903h-113.614612V588.044501h38.219337v209.553265h75.395275v29.416137z m-143.355362 5.773477l-43.930984-21.679523c3.895358-3.199758 7.620681-6.662299 10.975017-10.67359 18.672987-21.934576 27.986293-54.372707 27.986293-97.33758 0-79.058767-31.023745-118.607472-93.094422-118.607473-30.43635 0-54.179485 10.032093-71.159846 30.104008-18.657529 21.950034-27.970836 54.272232-27.970835 97.005238 0 42.006491 8.254449 72.821556 24.771077 92.367907 15.109971 17.706876 37.886995 26.571907 68.346531 26.571908 11.361461 0 21.787727-1.391199 31.286528-4.196785l57.19375 33.296037 15.596891-26.850147z m-142.311964-53.59209c-9.676564-15.565975-14.514846-40.56119-14.514846-75.024288 0-60.169371 18.278813-90.288837 54.875085-90.288837 19.128991 0 33.149189 7.203321 42.114695 21.579047 9.661106 15.589161 14.522575 40.360239 14.522576 74.344147 0 60.66402-18.294271 90.999894-54.867356 90.999894-19.13672 0.007729-33.156918-7.172405-42.130154-21.609963m-71.538561-18.417933c0 20.265137-7.435188 36.889969-22.290105 49.91314-14.870375 12.969069-34.810899 19.469062-59.798385 19.469062-23.372149 0-46.03324-7.466103-67.967816-22.32102l10.271688-20.52019c18.873938 9.452427 35.962503 14.151589 51.30434 14.151588 14.398913 0 25.65217-3.19203 33.813873-9.521986 8.153974-6.353144 13.015443-15.264548 13.015443-26.533263 0-14.197962-9.900702-26.332312-28.063583-36.495796-16.748494-9.197373-50.245483-28.42684-50.245482-28.42684-18.155151-13.231851-27.24432-27.437542-27.244321-50.840607 0-19.368586 6.778232-35.004121 20.342426-46.898875 13.579651-11.941128 31.101034-17.892369 52.579606-17.892369 22.181901 0 42.346562 5.943513 60.509443 17.706876l-9.212832 20.527919c-15.535059-6.600468-30.869167-9.900702-45.994595-9.900702-12.250283 0-21.710439 2.944705-28.28772 8.857302-6.631384 5.889411-10.719964 13.425074-10.719964 22.668821 0 14.128402 10.109382 26.41733 28.766911 36.781764 16.972632 9.212831 51.30434 28.77464 51.30434 28.77464 18.618884 13.208665 27.916733 27.282965 27.916733 50.500536" fill="#F8981D" p-id="9855"></path><path d="M1206.077078 508.004166c-23.109367-0.587395-41.001736 1.738999-56.01896 8.092143-4.335905 1.73127-11.23007 1.73127-11.832924 7.21105 2.341852 2.318666 2.612363 6.059446 4.64506 9.259205 3.462541 5.773477 9.4988 13.541007 15.009495 17.590942 6.051717 4.637331 12.126621 9.228289 18.495223 13.270496 11.23007 6.948268 23.959544 10.990475 34.903645 17.915556 6.37633 4.026749 12.714016 9.236018 19.098076 13.571922 3.137927 2.310937 5.147438 6.059446 9.22056 7.504748v-0.881093c-2.040426-2.596905-2.620092-6.353144-4.621874-9.243747l-8.671809-8.362653c-8.378112-11.253257-18.78892-21.07667-30.01899-29.145627-9.243747-6.368601-29.46251-15.024953-33.21102-25.675356l-0.587395-0.587395c6.353144-0.595124 13.888807-2.898332 19.925066-4.668247 9.823413-2.589177 18.781191-2.001781 28.859657-4.590958 4.637331-1.159333 9.236018-2.612363 13.888807-4.042207v-2.604634c-5.224726-5.20154-8.950049-12.111163-14.445286-17.026734-14.70034-12.698558-30.900083-25.118877-47.640849-35.514228-8.965507-5.788935-20.497004-9.514258-30.042176-14.437557-3.439354-1.738999-9.236018-2.596905-11.260986-5.487509-5.178353-6.353144-8.092143-14.715797-11.848381-22.236003-8.347196-15.867401-16.454797-33.473802-23.658118-50.253211-5.209269-11.253257-8.378112-22.491056-14.731255-32.901864-29.756208-49.078421-62.070677-78.803713-111.736493-107.980255-10.67359-6.074904-23.372149-8.66408-36.936343-11.848382l-21.664065-1.143875c-4.621873-2.024968-9.251476-7.520205-13.285954-10.11711-16.477983-10.387622-58.901834-32.901864-71.020726-3.176572-7.806174 18.78892 11.546954 37.260956 18.193796 46.790671 4.907842 6.615926 11.268715 14.14386 14.70034 21.656336 2.032697 4.907842 2.604634 10.117111 4.637331 15.303193 4.621873 12.706287 8.94232 26.842418 15.017224 38.698528 3.168843 6.043988 6.623655 12.397132 10.67359 17.869183 2.318666 3.199758 6.353144 4.614144 7.234237 9.831142-4.026749 5.750291-4.343633 14.429829-6.65457 21.648607-10.387622 32.623624-6.329957 73.037965 8.393569 97.012967 4.606416 7.218779 15.59689 23.109367 30.29723 17.019005 13.015443-5.193811 10.132568-21.648607 13.873349-36.078436 0.857906-3.485727 0.293698-5.773477 2.024968-8.061227v0.564209c4.026749 8.076685 8.092143 15.859672 11.825194 23.959544 8.957778 14.136131 24.554668 28.867386 37.546924 38.659883 6.917352 5.224726 12.397132 14.159318 21.061213 17.351348V521.854329h-0.571938c-1.754457-2.589177-4.320447-3.748509-6.623655-5.75802-5.209269-5.20154-10.975017-11.554683-15.017223-17.320432-12.103434-16.176557-22.815669-34.084384-32.322198-52.564148-4.652789-8.965507-8.66408-18.765733-12.41259-27.715782-1.746728-3.454812-1.746728-8.66408-4.64506-10.40308-4.343633 6.345415-10.67359 11.840652-13.842433 19.615911-5.495237 12.435776-6.067175 27.73124-8.107601 43.637286l-1.136146 0.55648c-9.197373-2.310937-12.397132-11.825194-15.890588-19.90188-8.648623-20.512461-10.101653-53.437512-2.596905-77.103359 2.00951-6.051717 10.704506-25.111148 7.234236-30.876896-1.738999-5.526153-7.520205-8.671809-10.689048-13.023171-3.725323-5.472051-7.806174-12.397132-10.40308-18.472036-6.925081-16.161099-10.410808-34.068926-17.869182-50.222296-3.485727-7.527934-9.537444-15.31865-14.437558-22.251461-5.502966-7.790716-11.554683-13.278225-15.906045-22.514242-1.437573-3.176572-3.454812-8.370383-1.143876-11.825195 0.564209-2.318666 1.738999-3.184301 4.042207-3.763967 3.74078-3.161114 14.429829 0.857906 18.178338 2.596906 10.704506 4.328176 19.654555 8.370383 28.589147 14.429828 4.042207 2.898332 8.378112 8.38584 13.564193 9.831142h6.074904c9.22056 2.00951 19.615911 0.55648 28.295449 3.168843 15.295464 4.915571 29.153355 12.126621 41.581402 19.909609 37.817435 23.982731 69.003487 58.059386 90.056971 98.759695 3.454812 6.631384 4.9233 12.706287 8.076685 19.623639 6.082633 14.159318 13.602838 28.596875 19.639097 42.454767 6.067175 13.564194 11.848381 27.414356 20.512461 38.68307 4.320447 6.059446 21.679523 9.236018 29.462511 12.41259 5.758019 2.589177 14.723526 4.892384 19.917337 8.068956 9.823413 6.051717 19.608182 12.999985 28.844199 19.654555 4.598687 3.462541 19.051702 10.681319 19.909609 16.462525M911.560178 257.093637a44.982112 44.982112 0 0 0-11.817465 1.453031v0.579666h0.556479c2.326394 4.614144 6.368601 7.813903 9.251476 11.840652 2.326394 4.629602 4.343633 9.22056 6.623655 13.842434l0.556479-0.571938c4.073122-2.882874 6.09809-7.504748 6.098091-14.437557-1.754457-2.040426-2.024968-4.034478-3.485727-6.059446-1.700355-2.890603-5.448864-4.328176-7.782988-6.646842" fill="#5D87A1" p-id="9856"></path><path d="M1233.576451 826.975259h5.982157v-29.277018h-8.973236l-7.319254 19.979169-7.953023-19.979169h-8.640893v29.277018h5.649815v-22.274648h0.316884l8.331738 22.274648h4.304989l8.300823-22.274648v22.274648z m-48.189599 0h6.329957v-24.315073h8.285365v-4.969674h-23.248487v4.969674h8.617707l0.015458 24.315073z" fill="#F8981D" p-id="9857"></path></svg>