<?xml version="1.0" standalone="no"?><!DOCTYPE svg PUBLIC "-//W3C//DTD SVG 1.1//EN" "http://www.w3.org/Graphics/SVG/1.1/DTD/svg11.dtd"><svg t="1690636823418" class="icon" viewBox="0 0 1024 1024" version="1.1" xmlns="http://www.w3.org/2000/svg" p-id="2699" xmlns:xlink="http://www.w3.org/1999/xlink" width="200" height="200"><path d="M0 0h1024v1024H0z" fill="#009966" p-id="2700"></path><path d="M970.65 26.163c45.67 14.131 45.67 15.309 23.705 77.62-27.75 77.619-21.401 69.99-49.1 60.569-25.447-9.42-55.501-11.162-71.68-5.274-17.92 7.066-27.751 38.81-30.618 97.639-1.178 31.18-1.178 63.539 1.177 71.782 3.482 15.309 4.045 15.309 64.154 15.309h60.672v141.21H844.134l2.304 258.816 2.304 258.816-97.075-1.178-97.69-1.74 2.305-257.64 1.74-257.074H576v-141.21h80.896l-1.178-84.122c-0.563-65.28 1.178-91.187 9.268-118.22C684.032 75.008 724.53 35.02 789.248 16.179c38.093-11.161 132.25-5.888 181.402 9.984zM402.534 340.89c54.887 17.05 92.468 37.632 92.468 50.585 0 14.131-50.842 118.835-56.628 115.866a2915.812 2915.812 0 0 0-36.403-18.227c-62.976-31.744-138.137-33.536-167.577-3.533-12.135 12.339-15.002 45.875-5.223 64.717 7.527 13.516 36.967 29.388 99.38 52.94 95.948 35.892 145.612 72.346 168.755 122.932 9.83 21.196 12.134 37.632 12.134 82.33 0 71.167-13.875 105.266-58.368 146.482-90.726 84.122-277.402 85.3-405.094 2.919-16.743-11.162-30.618-24.115-30.618-29.389 0-8.806 40.448-89.395 53.76-106.445 4.045-5.888 10.394-3.533 26.573 9.421 30.617 24.115 77.414 47.053 112.128 54.118 60.672 12.34 113.869-17.664 113.869-64.102 0-32.358-21.402-52.94-75.725-74.138C90.522 686.182 37.325 631.501 36.198 533.248c-1.177-104.14 53.146-171.213 160.052-198.86 41.01-10.548 164.096-7.015 206.284 6.502z" fill="#FFFFFF" p-id="2701"></path></svg>